<svg width="260" height="65" viewBox="0 0 260 65" fill="none" xmlns="http://www.w3.org/2000/svg">
<path fill-rule="evenodd" clip-rule="evenodd" d="M0.959822 20.2196V44.2185C0.959621 45.4927 1.29433 46.7445 1.93 47.8475C2.56566 48.9504 3.47973 49.8656 4.5798 50.501L25.3209 62.5008C26.4212 63.1377 27.6692 63.473 28.9392 63.473C30.2093 63.473 31.4571 63.1378 32.5574 62.501L53.2982 50.5014C54.3982 49.8659 55.3127 48.9505 55.9484 47.8475C56.5841 46.7445 56.9188 45.4928 56.9186 44.2185V20.2196C56.9186 18.9443 56.5838 17.6917 55.9481 16.5876C55.3124 15.4837 54.3984 14.5674 53.2982 13.9305L32.5576 1.93104C31.4573 1.29416 30.2093 0.95891 28.9392 0.95891C27.6692 0.95891 26.4213 1.29406 25.3211 1.93094L4.58051 13.9304C4.58058 13.9304 4.58045 13.9304 4.58051 13.9304C3.48025 14.5673 2.56598 15.4837 1.9303 16.5876C1.29456 17.6917 0.959765 18.9443 0.959822 20.2196ZM53.7791 13.1006C55.0256 13.8221 56.0605 14.8598 56.7801 16.1095C57.4997 17.3591 57.8784 18.7766 57.8784 20.2196V44.2185C57.8786 45.6606 57.4999 47.0773 56.7802 48.3259C56.0605 49.5746 55.0255 50.6112 53.7791 51.3312L33.0385 63.3306C31.7922 64.0521 30.3784 64.4319 28.9392 64.4319C27.5001 64.4319 26.0862 64.0521 24.8399 63.3306L4.09933 51.3312C2.85299 50.6112 1.81787 49.5746 1.09821 48.3259C0.378554 47.0773 -0.00023217 45.6606 1.06762e-07 44.2185V20.2196C-6.6121e-05 18.7766 0.378736 17.3591 1.09832 16.1095C1.8179 14.8598 2.85293 13.8221 4.09933 13.1006L24.8399 1.10123C26.0862 0.379793 27.5001 0 28.9392 0C30.3784 0 31.7922 0.379793 33.0385 1.10123L53.7791 13.1006Z" fill="#1FE88A"/>
<path d="M46.6911 34.7622V34.6925C46.6128 33.4973 46.3477 32.3219 45.9056 31.2096C45.4724 30.0485 44.9121 28.9804 44.3807 27.8774C44.3198 27.7833 44.2874 27.6734 44.2874 27.5611C44.2874 27.4488 44.3198 27.3389 44.3807 27.2448C44.8972 26.3655 45.2038 25.3778 45.2762 24.3595C45.3487 23.341 45.1851 22.3197 44.7982 21.3756C44.4113 20.4315 43.8118 19.5905 43.0469 18.9187C42.2819 18.2468 41.3723 17.7626 40.3895 17.5038C39.2433 17.1867 38.033 17.1871 36.8871 17.505C35.7411 17.8228 34.702 18.4462 33.8798 19.3092C33.787 19.4299 33.6535 19.5125 33.5043 19.5414C33.4299 19.5403 33.356 19.5286 33.2849 19.5066C30.3182 18.7546 27.2121 18.7546 24.2453 19.5066C24.1762 19.5286 24.1041 19.5403 24.0316 19.5414C23.8802 19.5144 23.7443 19.4315 23.6504 19.3092C22.8286 18.4457 21.7895 17.8219 20.6434 17.504C19.4972 17.1862 18.2869 17.1861 17.1408 17.5038H17.1119C16.1298 17.7635 15.2209 18.2484 14.4566 18.9204C13.6923 19.5924 13.0933 20.4333 12.7066 21.377C12.32 22.3207 12.156 23.3417 12.2279 24.3598C12.2997 25.3778 12.6052 26.3652 13.1206 27.2448C13.1815 27.3389 13.2139 27.4488 13.2139 27.5611C13.2139 27.6734 13.1815 27.7833 13.1206 27.8774C12.5892 28.9804 12.0346 30.0717 11.5957 31.2096C11.1567 32.3229 10.8917 33.4978 10.8102 34.6925V34.7622C10.6756 35.8033 10.6369 36.8546 10.6946 37.9028C10.8372 40.0484 11.6733 42.0885 13.0757 43.7127C14.478 45.3369 16.3699 46.4563 18.4634 46.9005C19.236 47.0534 20.0212 47.1311 20.8085 47.1328C23.4655 47.1328 26.1225 47.1328 28.7795 47.1328C31.4365 47.1328 34.0935 47.1328 36.7505 47.1328C37.5262 47.129 38.2999 47.0513 39.061 46.9005C41.1555 46.4574 43.0487 45.3386 44.4521 43.7142C45.8557 42.0899 46.6926 40.0492 46.8356 37.9028C46.8885 36.8544 46.8479 35.8034 46.7142 34.7622M24.5687 36.2367C24.5687 37.0065 24.2645 37.7447 23.7229 38.2891C23.1812 38.8334 22.4467 39.1392 21.6807 39.1392H19.1855C18.6083 39.1462 18.0421 38.9791 17.5603 38.6595C17.0785 38.34 16.703 37.8827 16.4822 37.3466C16.2616 36.8105 16.2057 36.2203 16.3221 35.6519C16.4385 35.0837 16.7216 34.5635 17.1349 34.1585L19.6303 31.6565C20.0335 31.2431 20.5506 30.9604 21.115 30.8447C21.6795 30.7289 22.2655 30.7854 22.7977 31.007C23.3299 31.2286 23.784 31.605 24.1017 32.088C24.4193 32.5709 24.586 33.1384 24.5804 33.7173L24.5687 36.2367ZM32.713 41.8328C31.6821 42.8668 30.2852 43.4476 28.8286 43.4476C27.3721 43.4476 25.9752 42.8668 24.9442 41.8328C24.8409 41.7426 24.7679 41.6225 24.7357 41.4888C24.7034 41.3551 24.7134 41.2147 24.7643 41.087C24.815 40.9593 24.9042 40.8508 25.0193 40.7763C25.1344 40.7019 25.2696 40.6654 25.4063 40.6717H32.2221C32.3588 40.6654 32.494 40.7019 32.6091 40.7763C32.7242 40.8508 32.8133 40.9593 32.8641 41.087C32.915 41.2147 32.9249 41.3551 32.8926 41.4888C32.8604 41.6225 32.7875 41.7426 32.6841 41.8328M38.2523 39.1566H35.757C34.9911 39.1566 34.2565 38.8508 33.7149 38.3066C33.1733 37.7622 32.869 37.0239 32.869 36.2541V33.7521C32.8632 33.1732 33.03 32.6058 33.3477 32.1228C33.6653 31.6399 34.1195 31.2635 34.6516 31.0419C35.1838 30.8203 35.7698 30.7638 36.3342 30.8795C36.8987 30.9952 37.4158 31.278 37.8191 31.6914L40.3143 34.1933C40.7277 34.5983 41.0109 35.1186 41.1272 35.6868C41.2435 36.2551 41.1878 36.8453 40.967 37.3814C40.7464 37.9175 40.3709 38.3749 39.889 38.6944C39.4072 39.014 38.8411 39.181 38.2639 39.1741" fill="#1FE88A"/>
<path d="M86.1132 25.7627C87.3875 25.7159 88.6559 25.9554 89.8251 26.4636C90.9944 26.9717 92.0346 27.7355 92.869 28.6987C94.6637 30.8566 95.5856 33.6073 95.4532 36.4098C95.5789 39.2138 94.6338 41.9607 92.8099 44.0957C91.9584 45.062 90.9038 45.8287 89.7213 46.3406C88.5389 46.8525 87.2578 47.0971 85.9697 47.057C84.607 47.0768 83.2625 46.7424 82.0682 46.0867C81.0087 45.5354 80.1295 44.6921 79.5349 43.657V46.4748H73.1169V17.0983H79.5349V29.1712C80.1317 28.1013 81.0384 27.2366 82.1358 26.6907C83.3643 26.0573 84.731 25.7384 86.1132 25.7627ZM84.1034 41.7334C84.7508 41.7515 85.3944 41.6271 85.9884 41.369C86.5823 41.111 87.1121 40.7256 87.5404 40.2401C88.461 39.1814 88.9414 37.811 88.8831 36.4098C88.944 35.0133 88.463 33.6473 87.5404 32.5965C87.1084 32.1174 86.5771 31.738 85.9836 31.4845C85.3902 31.231 84.7485 31.1095 84.1034 31.1285C83.4437 31.1028 82.7862 31.2207 82.1767 31.4742C81.5671 31.7277 81.0201 32.1106 80.5735 32.5965C79.6532 33.6481 79.1752 35.0144 79.2393 36.4098C79.172 37.8229 79.6598 39.2065 80.5989 40.2654C81.0431 40.7474 81.586 41.1281 82.1908 41.3815C82.7956 41.6348 83.448 41.7549 84.1034 41.7334Z" fill="white"/>
<path d="M118.671 35.3632C118.663 36.302 118.606 37.2397 118.502 38.1727H103.605C103.602 38.7473 103.72 39.3164 103.951 39.8426C104.182 40.3688 104.522 40.8404 104.948 41.2267C105.906 41.9845 107.106 42.371 108.326 42.3151C110.274 42.3151 111.533 41.6879 112.101 40.4337H118.392C118.23 41.4266 117.855 42.3731 117.294 43.2087C116.733 44.0443 115.999 44.7495 115.141 45.2763C113.109 46.5675 110.734 47.2172 108.326 47.1409C104.881 47.1409 102.167 46.1903 100.186 44.2893C98.2035 42.3881 97.2101 39.7616 97.2043 36.4094C97.2043 33.1134 98.1978 30.5093 100.186 28.597C101.252 27.6188 102.502 26.861 103.863 26.3672C105.224 25.8735 106.668 25.6535 108.115 25.7201C110.899 25.608 113.619 26.5684 115.715 28.403C116.684 29.2792 117.45 30.3557 117.96 31.5577C118.471 32.7597 118.713 34.0583 118.671 35.3632ZM103.605 34.1905H112.379C112.425 33.0458 112.015 31.9297 111.24 31.0858C110.817 30.7015 110.32 30.4068 109.781 30.2197C109.241 30.0327 108.668 29.9571 108.098 29.9975C107.507 29.965 106.916 30.0495 106.357 30.2465C105.8 30.4434 105.286 30.7488 104.846 31.1449C104.446 31.5436 104.13 32.0188 103.916 32.5419C103.703 33.065 103.598 33.6257 103.605 34.1905Z" fill="white"/>
<path d="M132.255 41.5221C132.997 41.5314 133.739 41.4891 134.476 41.3957V46.4744C133.064 46.7115 131.634 46.8244 130.202 46.812C129.556 46.8178 128.91 46.7755 128.269 46.6854C127.621 46.5763 126.987 46.3864 126.386 46.1201C125.74 45.8521 125.163 45.4428 124.697 44.9222C124.17 44.2809 123.776 43.5408 123.54 42.7454C123.197 41.6542 123.034 40.5143 123.058 39.3708V31.3222H119.875V26.2602H123.025V20.3208H129.443V26.3108H134.003V31.3728H129.426V38.0799C129.426 39.4468 129.662 40.3579 130.144 40.8219C130.431 41.0731 130.766 41.2644 131.129 41.3846C131.491 41.5049 131.874 41.5516 132.255 41.5221Z" fill="white"/>
<path d="M150.55 25.7631C151.823 25.7181 153.091 25.9584 154.26 26.4664C155.429 26.9745 156.47 27.7373 157.306 28.6991C159.079 30.8664 159.981 33.6148 159.839 36.4102C159.965 39.2141 159.019 41.9611 157.196 44.096C156.346 45.0627 155.293 45.8296 154.113 46.3416C152.931 46.8536 151.651 47.098 150.364 47.0572C149.002 47.0791 147.656 46.7446 146.463 46.087C145.401 45.538 144.521 44.6943 143.929 43.6573V54.9118H137.511V26.3115H143.929V29.2053C144.524 28.1334 145.431 27.2682 146.53 26.7249C147.767 26.0708 149.15 25.74 150.55 25.7631ZM148.531 41.7337C149.18 41.7519 149.825 41.6276 150.42 41.3696C151.015 41.1115 151.547 40.7261 151.977 40.2404C152.892 39.1787 153.369 37.8097 153.311 36.4102C153.371 35.0153 152.894 33.6507 151.977 32.5968C151.543 32.1175 151.01 31.7381 150.415 31.4846C149.821 31.2312 149.178 31.1098 148.531 31.1289C147.873 31.1037 147.217 31.2221 146.609 31.4756C146.001 31.729 145.455 32.1116 145.011 32.5968C144.087 33.6476 143.606 35.0137 143.668 36.4102C143.603 37.8228 144.091 39.205 145.027 40.2658C145.471 40.7474 146.015 41.1277 146.619 41.3811C147.224 41.6343 147.877 41.7547 148.531 41.7337Z" fill="white"/>
<path d="M171.259 47.0566C169.95 47.1155 168.645 46.8783 167.439 46.3626C166.235 45.847 165.162 45.0661 164.302 44.0784C162.544 41.919 161.643 39.1897 161.768 36.4095C161.673 33.6381 162.615 30.9308 164.411 28.8165C165.271 27.825 166.342 27.0389 167.547 26.5161C168.751 25.9934 170.058 25.7473 171.37 25.7961C172.699 25.7748 174.013 26.0913 175.187 26.7157C176.268 27.2843 177.151 28.1667 177.72 29.2468V26.3529H184.096V46.4745H177.72V43.6229C177.127 44.6654 176.248 45.5171 175.187 46.078C173.983 46.7355 172.631 47.0725 171.259 47.0566ZM173.109 41.733C173.779 41.7707 174.449 41.6541 175.067 41.3923C175.685 41.1305 176.234 40.7304 176.673 40.2228C177.536 39.1432 177.982 37.7901 177.931 36.4095C177.978 35.0423 177.532 33.704 176.673 32.6383C176.234 32.1308 175.685 31.7307 175.067 31.4688C174.449 31.2071 173.779 31.0905 173.109 31.1281C172.453 31.1016 171.799 31.2192 171.193 31.4729C170.589 31.7266 170.045 32.11 169.605 32.5961C168.697 33.6538 168.225 35.0173 168.287 36.4095C168.228 37.8063 168.7 39.1739 169.605 40.2397C170.041 40.7323 170.583 41.1217 171.189 41.38C171.795 41.6382 172.451 41.7588 173.109 41.733Z" fill="white"/>
<path d="M188.757 46.474V26.3104H195.175V29.2463C196.374 26.929 198.553 25.7676 201.712 25.762C206.632 25.762 209.095 28.5151 209.1 34.0215V46.474H202.64V36.0799C202.73 34.7678 202.436 33.4576 201.796 32.3088C201.474 31.8989 201.053 31.5766 200.573 31.3717C200.093 31.1668 199.57 31.0857 199.051 31.1361C196.45 31.1361 195.149 32.7279 195.149 35.9113V46.474H188.757Z" fill="white"/>
<path d="M228.018 17.1742H234.435V46.4748H228.06V43.6233C227.454 44.6738 226.556 45.5264 225.475 46.0783C224.298 46.7102 222.979 47.0352 221.642 47.0232C220.332 47.0828 219.023 46.8459 217.818 46.3303C216.611 45.8146 215.537 45.0335 214.675 44.0451C212.918 41.8856 212.017 39.1563 212.142 36.3761C212.05 33.6053 212.993 30.8995 214.785 28.7832C215.647 27.7918 216.72 27.006 217.925 26.4834C219.131 25.9607 220.438 25.7145 221.752 25.7628C223.082 25.7426 224.395 26.059 225.569 26.6824C226.648 27.2531 227.531 28.1349 228.102 29.2134V27.526H228.06L228.018 17.1742ZM223.516 41.7335C224.188 41.7705 224.859 41.6537 225.478 41.392C226.097 41.1302 226.648 40.7304 227.089 40.2233C227.952 39.1436 228.398 37.7905 228.347 36.4099C228.394 35.0427 227.947 33.7043 227.089 32.6387C226.648 32.1315 226.097 31.7317 225.478 31.47C224.859 31.2082 224.188 31.0915 223.516 31.1285C222.862 31.102 222.209 31.2198 221.605 31.4735C221.001 31.7271 220.46 32.1106 220.021 32.5965C219.106 33.6512 218.632 35.0161 218.695 36.4099C218.636 37.8083 219.109 39.1772 220.021 40.2401C220.456 40.7324 220.996 41.122 221.601 41.3802C222.205 41.6385 222.86 41.7592 223.516 41.7335Z" fill="white"/>
<path d="M247.163 47.0564C245.853 47.1161 244.546 46.8791 243.339 46.3635C242.133 45.8478 241.059 45.0667 240.197 44.0783C238.44 41.9188 237.538 39.1895 237.663 36.4093C237.573 33.6385 238.514 30.9327 240.306 28.8164C241.168 27.8251 242.241 27.0393 243.447 26.5166C244.652 25.9939 245.96 25.7477 247.274 25.796C248.603 25.7758 249.916 26.0922 251.091 26.7156C252.17 27.2863 253.053 28.1682 253.624 29.2465V26.3528H260V46.4743H253.624V43.6227C253.018 44.6732 252.121 45.5259 251.04 46.0777C249.852 46.7284 248.518 47.0652 247.163 47.0564ZM249.004 41.7329C249.676 41.7699 250.347 41.6531 250.966 41.3914C251.585 41.1297 252.136 40.7299 252.577 40.2227C253.44 39.1431 253.886 37.79 253.835 36.4093C253.882 35.0422 253.436 33.7038 252.577 32.6381C252.136 32.131 251.585 31.7312 250.966 31.4695C250.347 31.2077 249.676 31.0909 249.004 31.128C248.35 31.1015 247.697 31.2192 247.093 31.4729C246.489 31.7267 245.948 32.11 245.509 32.5959C244.594 33.6506 244.12 35.0155 244.183 36.4093C244.124 37.8078 244.597 39.1766 245.509 40.2396C245.946 40.7354 246.491 41.1268 247.1 41.3852C247.709 41.6436 248.369 41.7624 249.03 41.7329H249.004Z" fill="white"/>
</svg>
