<svg width="1539" height="170" viewBox="0 0 1539 170" fill="none" xmlns="http://www.w3.org/2000/svg">
<path d="M169.026 120.279C169.925 120.654 170.325 121.728 169.9 122.603C155.683 151.986 127.475 170 89.7222 170C40.4762 170 0 134.921 0 85.2249C0 35.5291 40.4762 0.224854 89.7222 0.224854C124.127 0.224854 155.533 19.0638 170.5 47.597C170.974 48.4715 170.55 49.5958 169.625 49.9706L125.776 68.3348C124.877 68.7096 123.877 68.2349 123.502 67.3354C119.205 56.3668 106.637 44.9735 90.8216 44.9735C69.684 44.9735 55.7422 61.8386 55.7422 85.2249C55.7422 108.611 69.9089 125.476 90.8216 125.476C106.462 125.476 119.255 114.658 123.727 103.114C124.077 102.19 125.101 101.74 126.001 102.115L169.001 120.279H169.026Z" fill="#0E2D40"/>
<path d="M234.587 167.302H181.343C180.394 167.302 179.644 166.527 179.644 165.603V4.39743C179.644 3.44798 180.419 2.69843 181.343 2.69843H259.697C297.475 2.69843 323.784 27.8836 323.784 63.4127C323.784 83.1261 314.19 100.741 298 108.836C297.025 109.311 296.725 110.535 297.375 111.384L337.451 164.553C338.301 165.678 337.501 167.277 336.077 167.277H277.437C276.887 167.277 276.337 167.002 276.038 166.527L243.557 119.205C243.232 118.73 242.707 118.455 242.158 118.455H238.01C237.061 118.455 236.311 119.23 236.311 120.154V165.528C236.311 166.477 235.536 167.227 234.612 167.227L234.587 167.302ZM236.286 74.756C236.286 75.7055 237.061 76.455 237.985 76.455H253.376C259.222 76.455 267.992 73.082 267.992 61.6138C267.992 52.6191 262.595 46.9974 253.376 46.9974H237.985C237.036 46.9974 236.286 47.7719 236.286 48.6964V74.731V74.756Z" fill="#0E2D40"/>
<path d="M308.194 2.69843H368.183C368.808 2.69843 369.383 3.04822 369.683 3.5979L396.017 52.4941C396.667 53.6934 398.391 53.6934 399.04 52.4941L424.5 3.64787C424.8 3.0732 425.375 2.72341 426.024 2.72341H487.313C488.663 2.72341 489.487 4.22253 488.762 5.34687L425.725 103.939C425.55 104.214 425.45 104.539 425.45 104.863V165.628C425.45 166.577 424.675 167.327 423.751 167.327H370.507C369.558 167.327 368.808 166.552 368.808 165.628V104.863C368.808 104.539 368.708 104.239 368.558 103.964L306.745 5.32188C306.045 4.19754 306.845 2.72341 308.194 2.72341V2.69843Z" fill="#0E2D40"/>
<path d="M638.799 64.9868C638.799 99.6164 615.413 124.577 568.64 124.577H553.025C552.075 124.577 551.326 125.351 551.326 126.276V165.578C551.326 166.527 550.551 167.277 549.627 167.277H496.383C495.434 167.277 494.684 166.502 494.684 165.578V4.39743C494.684 3.44798 495.458 2.69843 496.383 2.69843H573.388C610.041 2.69843 638.824 26.7593 638.824 64.9868H638.799ZM566.392 80.2778C576.286 80.2778 582.807 73.9815 582.807 64.3122C582.807 53.7434 576.286 46.9974 566.392 46.9974H553.025C552.075 46.9974 551.326 47.7719 551.326 48.6964V78.5538C551.326 79.5032 552.1 80.2528 553.025 80.2528H566.392V80.2778Z" fill="#0E2D40"/>
<path d="M778.942 46.9974H740.764C739.815 46.9974 739.065 47.7719 739.065 48.6964V165.578C739.065 166.527 738.291 167.277 737.366 167.277H684.797C683.848 167.277 683.098 166.502 683.098 165.578V48.6964C683.098 47.7469 682.324 46.9974 681.399 46.9974H642.997C642.047 46.9974 641.298 46.2228 641.298 45.2984V4.39743C641.298 3.44798 642.072 2.69843 642.997 2.69843H778.992C779.941 2.69843 780.691 3.47297 780.691 4.39743V45.2734C780.691 46.2228 779.916 46.9724 778.992 46.9724L778.942 46.9974Z" fill="#0E2D40"/>
<path d="M776.993 85C776.993 38.4524 810.948 0 866.715 0C922.482 0 956.437 38.4524 956.437 85C956.437 131.548 922.257 170 866.715 170C811.173 170 776.993 131.772 776.993 85ZM833.21 85C833.21 106.138 846.252 125.251 866.715 125.251C887.178 125.251 899.996 105.688 899.996 85C899.996 64.3122 888.078 44.7487 866.715 44.7487C845.353 44.7487 833.21 64.7619 833.21 85Z" fill="#0E2D40"/>
<path d="M1020.05 167.302H966.806C965.857 167.302 965.107 166.527 965.107 165.603V4.39743C965.107 3.44798 965.882 2.69843 966.806 2.69843H1045.16C1082.94 2.69843 1109.25 27.8836 1109.25 63.4127C1109.25 83.1261 1099.65 100.741 1083.46 108.836C1082.49 109.311 1082.19 110.535 1082.84 111.384L1122.91 164.553C1123.76 165.678 1122.96 167.277 1121.54 167.277H1062.9C1062.35 167.277 1061.8 167.002 1061.5 166.527L1029.02 119.205C1028.69 118.73 1028.17 118.455 1027.62 118.455H1023.47C1022.52 118.455 1021.77 119.23 1021.77 120.154V165.528C1021.77 166.477 1021 167.227 1020.07 167.227L1020.05 167.302ZM1021.75 74.756C1021.75 75.7055 1022.52 76.455 1023.45 76.455H1038.84C1044.69 76.455 1053.46 73.082 1053.46 61.6138C1053.46 52.6191 1048.06 46.9974 1038.84 46.9974H1023.45C1022.5 46.9974 1021.75 47.7719 1021.75 48.6964V74.731V74.756Z" fill="#0E2D40"/>
<path d="M1179.66 167.302H1126.86C1125.91 167.302 1125.16 166.527 1125.16 165.603V4.39743C1125.16 3.44798 1125.94 2.69843 1126.86 2.69843H1179.66C1180.61 2.69843 1181.36 3.47297 1181.36 4.39743V165.578C1181.36 166.527 1180.58 167.277 1179.66 167.277V167.302Z" fill="#0E2D40"/>
<path d="M1325.8 166.852L1254.26 101.116C1253.16 100.116 1251.41 100.891 1251.41 102.365V165.578C1251.41 166.527 1250.64 167.277 1249.71 167.277H1196.92C1195.97 167.277 1195.22 166.502 1195.22 165.578V4.39743C1195.22 3.44798 1196 2.69843 1196.92 2.69843H1217.93C1218.36 2.69843 1218.78 2.84834 1219.08 3.14816L1290.84 69.3092C1291.94 70.3086 1293.71 69.5341 1293.71 68.06V4.39743C1293.71 3.44798 1294.49 2.69843 1295.41 2.69843H1348.21C1349.16 2.69843 1349.91 3.47297 1349.91 4.39743V165.578C1349.91 166.527 1349.13 167.277 1348.21 167.277H1326.97C1326.54 167.277 1326.12 167.127 1325.82 166.827L1325.8 166.852Z" fill="#0E2D40"/>
<path d="M1359.45 85C1359.45 38.4524 1393.41 0 1449.17 0C1504.94 0 1538.89 38.4524 1538.89 85C1538.89 131.548 1504.71 170 1449.17 170C1393.63 170 1359.45 131.772 1359.45 85ZM1415.67 85C1415.67 106.138 1428.71 125.251 1449.17 125.251C1469.64 125.251 1482.45 105.688 1482.45 85C1482.45 64.3122 1470.53 44.7487 1449.17 44.7487C1427.81 44.7487 1415.67 64.7619 1415.67 85Z" fill="#0E2D40"/>
</svg>
